<svg width="36" height="36" viewBox="0 0 36 36" fill="none" xmlns="http://www.w3.org/2000/svg">
<path d="M8.85938 10.1948C8.85938 15.2207 12.9336 19.2949 17.9595 19.2949C22.9854 19.2949 27.0597 15.2207 27.0597 10.1948C27.0597 5.16889 22.9854 1.09464 17.9595 1.09464C12.9336 1.09464 8.85938 5.16889 8.85938 10.1948Z" stroke="black" stroke-width="1.5" stroke-miterlimit="10" stroke-linecap="round" stroke-linejoin="round"/>
<path d="M24.7183 10.2021H24.1328" stroke="black" stroke-width="1.5" stroke-miterlimit="10" stroke-linecap="round" stroke-linejoin="round"/>
<path d="M11.2031 10.1865H11.7886" stroke="black" stroke-width="1.5" stroke-miterlimit="10" stroke-linecap="round" stroke-linejoin="round"/>
<path d="M17.9648 3.43695V4.02246" stroke="black" stroke-width="1.5" stroke-miterlimit="10" stroke-linecap="round" stroke-linejoin="round"/>
<path d="M17.9492 16.9521V16.3666" stroke="black" stroke-width="1.5" stroke-miterlimit="10" stroke-linecap="round" stroke-linejoin="round"/>
<path d="M22.7271 5.42855L17.9613 10.1943L17.9535 10.1866L14.9883 7.22142" stroke="black" stroke-width="1.5" stroke-miterlimit="10" stroke-linecap="round" stroke-linejoin="round"/>
<path d="M6.89725 23.3168L2.94407 25.5993C2.85134 25.6528 2.78367 25.741 2.75595 25.8444C2.72823 25.9478 2.74273 26.058 2.79626 26.1508L7.78879 34.7981C7.84234 34.8909 7.93054 34.9585 8.03398 34.9862C8.13742 35.014 8.24763 34.9995 8.34038 34.9459L12.2936 32.6635C12.3395 32.637 12.3797 32.6017 12.412 32.5596C12.4443 32.5176 12.4679 32.4696 12.4817 32.4184C12.4954 32.3671 12.4989 32.3137 12.492 32.2612C12.485 32.2086 12.4678 32.1579 12.4413 32.112L7.44877 23.4647C7.39523 23.3719 7.30705 23.3043 7.20362 23.2765C7.10019 23.2488 6.98999 23.2633 6.89725 23.3168Z" stroke="black" stroke-width="1.5" stroke-miterlimit="10" stroke-linecap="round" stroke-linejoin="round"/>
<path d="M17.2812 30.71H22.9065C24.2635 30.71 25.565 30.1709 26.5246 29.2113L32.6568 23.0791C33.4196 22.3163 33.3516 21.0603 32.511 20.3844C31.7898 19.8044 30.7475 19.8609 30.0931 20.5153L24.2742 26.3342C23.9336 26.6747 23.4718 26.866 22.9903 26.866H21.6517" stroke="black" stroke-width="1.5" stroke-miterlimit="10" stroke-linecap="round" stroke-linejoin="round"/>
<path d="M8.15625 24.6858L12.7373 22.3283C13.8312 21.7653 15.0926 21.6197 16.2859 21.9188L22.8055 23.5522C23.1692 23.6433 23.492 23.8533 23.7226 24.1489C23.9533 24.4444 24.0785 24.8086 24.0785 25.1835C24.0785 26.1123 23.3256 26.8652 22.3968 26.8652H17.2725" stroke="black" stroke-width="1.5" stroke-miterlimit="10" stroke-linecap="round" stroke-linejoin="round"/>
<path d="M32.1602 2.0459V1.09376" stroke="black" stroke-width="1.5" stroke-miterlimit="10" stroke-linecap="round" stroke-linejoin="round"/>
<path d="M32.1602 6.60938V5.65724" stroke="black" stroke-width="1.5" stroke-miterlimit="10" stroke-linecap="round" stroke-linejoin="round"/>
<path d="M33.9648 3.85156H34.917" stroke="black" stroke-width="1.5" stroke-miterlimit="10" stroke-linecap="round" stroke-linejoin="round"/>
<path d="M29.4023 3.85156H30.3545" stroke="black" stroke-width="1.5" stroke-miterlimit="10" stroke-linecap="round" stroke-linejoin="round"/>
<path d="M3.75781 16.248V15.2959" stroke="black" stroke-width="1.5" stroke-miterlimit="10" stroke-linecap="round" stroke-linejoin="round"/>
<path d="M3.75781 20.8115V19.8594" stroke="black" stroke-width="1.5" stroke-miterlimit="10" stroke-linecap="round" stroke-linejoin="round"/>
<path d="M5.5625 18.0537H6.51464" stroke="black" stroke-width="1.5" stroke-miterlimit="10" stroke-linecap="round" stroke-linejoin="round"/>
<path d="M1 18.0537H1.95214" stroke="black" stroke-width="1.5" stroke-miterlimit="10" stroke-linecap="round" stroke-linejoin="round"/>
<path d="M10.3476 33.7871L8.28906 30.2216" stroke="black" stroke-width="1.5" stroke-miterlimit="10" stroke-linecap="round" stroke-linejoin="round"/>
</svg>
