<svg width="42" height="32" viewBox="0 0 42 32" fill="none" xmlns="http://www.w3.org/2000/svg">
<path d="M33.6411 31.326H0.875C0.642936 31.326 0.420376 31.2339 0.256282 31.0698C0.0921873 30.9057 0 30.6831 0 30.451V11.6963C0 11.4642 0.0921873 11.2417 0.256282 11.0776C0.420376 10.9135 0.642936 10.8213 0.875 10.8213H33.6411C33.8732 10.8213 34.0957 10.9135 34.2598 11.0776C34.4239 11.2417 34.5161 11.4642 34.5161 11.6963V30.451C34.5161 30.6831 34.4239 30.9057 34.2598 31.0698C34.0957 31.2339 33.8732 31.326 33.6411 31.326ZM1.75 29.576H32.7661V12.5713H1.75V29.576Z" fill="black"/>
<path d="M28.0013 28.6739H6.52263C6.29056 28.6739 6.068 28.5817 5.90391 28.4176C5.73981 28.2536 5.64763 28.031 5.64763 27.7989C5.64693 27.3332 5.46157 26.8868 5.13219 26.5576C4.80282 26.2284 4.35632 26.0433 3.89063 26.0428C3.65856 26.0428 3.436 25.9506 3.27191 25.7865C3.10781 25.6224 3.01563 25.3999 3.01562 25.1678V16.9787C3.01562 16.7466 3.10781 16.5241 3.27191 16.36C3.436 16.1959 3.65856 16.1037 3.89063 16.1037C4.3564 16.103 4.80289 15.9176 5.13224 15.5883C5.4616 15.2589 5.64693 14.8125 5.64763 14.3467C5.64763 14.1146 5.73981 13.8921 5.90391 13.728C6.068 13.5639 6.29056 13.4717 6.52263 13.4717H28.0013C28.2333 13.4717 28.4559 13.5639 28.62 13.728C28.7841 13.8921 28.8763 14.1146 28.8763 14.3467C28.8767 14.8113 29.061 15.2569 29.3889 15.5861C29.7168 15.9153 30.1616 16.1014 30.6263 16.1037C30.8583 16.1037 31.0809 16.1959 31.245 16.36C31.4091 16.5241 31.5013 16.7466 31.5013 16.9787V25.1678C31.5013 25.3999 31.4091 25.6224 31.245 25.7865C31.0809 25.9506 30.8583 26.0428 30.6263 26.0428C30.1606 26.0433 29.7142 26.2284 29.385 26.5577C29.0558 26.8869 28.8706 27.3333 28.8701 27.7989C28.8701 28.0299 28.7788 28.2516 28.616 28.4155C28.4532 28.5794 28.2323 28.6723 28.0013 28.6739ZM7.29088 26.9239H27.2409C27.3973 26.3181 27.7124 25.7649 28.1536 25.3212C28.5948 24.8775 29.1463 24.5594 29.7513 24.3996V17.7426C29.1447 17.5848 28.5913 17.268 28.1481 16.8248C27.7049 16.3817 27.3881 15.8282 27.2304 15.2217H7.2865C7.12893 15.8283 6.81218 16.3819 6.36899 16.825C5.9258 17.2682 5.37226 17.585 4.76563 17.7426V24.3996C5.37261 24.5576 5.92634 24.8749 6.36954 25.3187C6.81274 25.7626 7.12931 26.3167 7.2865 26.9239H7.29088Z" fill="black"/>
<path d="M17.2575 25.896C16.3035 25.8962 15.3708 25.6134 14.5775 25.0835C13.7842 24.5536 13.1659 23.8003 12.8008 22.9189C12.4357 22.0375 12.3402 21.0677 12.5263 20.132C12.7124 19.1963 13.1719 18.3368 13.8465 17.6623C14.5212 16.9878 15.3807 16.5285 16.3164 16.3425C17.2521 16.1566 18.222 16.2523 19.1033 16.6176C19.9846 16.9828 20.7378 17.6013 21.2676 18.3947C21.7974 19.1881 22.0799 20.1207 22.0796 21.0748C22.0775 22.3529 21.5688 23.5782 20.6649 24.4819C19.761 25.3856 18.5357 25.8942 17.2575 25.896ZM17.2575 18.0009C16.6497 18.0007 16.0555 18.1808 15.5501 18.5183C15.0446 18.8558 14.6506 19.3356 14.4178 19.8971C14.1851 20.4585 14.1241 21.0764 14.2425 21.6725C14.3609 22.2687 14.6534 22.8163 15.083 23.2462C15.5127 23.6761 16.0602 23.9689 16.6562 24.0877C17.2523 24.2064 17.8702 24.1457 18.4318 23.9133C18.9934 23.6809 19.4734 23.2871 19.8112 22.7819C20.149 22.2766 20.3294 21.6825 20.3296 21.0748C20.3291 20.26 20.0054 19.4786 19.4294 18.9023C18.8534 18.326 18.0723 18.0018 17.2575 18.0009Z" fill="black"/>
<path d="M35.7163 26.3146C35.4918 26.3146 35.2759 26.2284 35.1132 26.0737C34.9505 25.9189 34.8535 25.7076 34.8423 25.4834C34.831 25.2592 34.9064 25.0392 35.0528 24.869C35.1992 24.6988 35.4054 24.5914 35.6288 24.569L36.6385 24.4631L34.8623 7.55197L6.69342 10.5095C6.46251 10.5337 6.23143 10.4653 6.05101 10.3191C5.87059 10.173 5.7556 9.96119 5.73135 9.73029C5.7071 9.49938 5.77557 9.2683 5.9217 9.08788C6.06782 8.90746 6.27964 8.79247 6.51054 8.76822L35.5465 5.71972C35.6609 5.7076 35.7765 5.71812 35.8868 5.75071C35.997 5.78329 36.0998 5.83729 36.1892 5.90961C36.2786 5.98193 36.3528 6.07117 36.4077 6.17221C36.4626 6.27325 36.497 6.38412 36.509 6.49847L38.4682 25.1508C38.4803 25.2652 38.4698 25.3808 38.4372 25.4911C38.4046 25.6013 38.3506 25.7041 38.2783 25.7935C38.206 25.8829 38.1167 25.9572 38.0157 26.012C37.9146 26.0669 37.8038 26.1013 37.6894 26.1133L35.809 26.3111C35.7775 26.3128 35.7469 26.3146 35.7163 26.3146Z" fill="black"/>
<path d="M39.6973 21.117C39.4796 21.1168 39.2699 21.0355 39.109 20.889C38.948 20.7425 38.8475 20.5413 38.8269 20.3246C38.8064 20.108 38.8673 19.8914 38.9978 19.7173C39.1283 19.5431 39.3191 19.4238 39.5328 19.3827L40.1024 19.2734L36.8981 2.57311L9.47476 7.83361C9.24653 7.87736 9.01026 7.82864 8.81794 7.69819C8.62562 7.56773 8.49301 7.36622 8.44926 7.13799C8.40552 6.90975 8.45423 6.67349 8.58469 6.48117C8.71514 6.28885 8.91665 6.15623 9.14489 6.11249L37.4284 0.68749C37.6561 0.643881 37.8919 0.692466 38.0839 0.82257C38.2758 0.952675 38.4083 1.15366 38.4521 1.38136L41.9854 19.801C42.029 20.0289 41.9803 20.2647 41.85 20.4567C41.7197 20.6487 41.5185 20.7811 41.2906 20.8247L39.8626 21.0986C39.8082 21.1099 39.7528 21.116 39.6973 21.117Z" fill="black"/>
</svg>
