<svg width="36" height="36" viewBox="0 0 36 36" fill="none" xmlns="http://www.w3.org/2000/svg">
<path d="M1.76091 10.762C1.74192 10.9539 1.73278 11.1466 1.73278 11.3371C1.73278 11.5277 1.74192 11.7203 1.76091 11.9123L0.686532 13.2552C0.615756 13.3438 0.573331 13.4516 0.564801 13.5646C0.556271 13.6776 0.582033 13.7906 0.638719 13.8888L1.90997 16.0888C1.96677 16.1868 2.05174 16.2654 2.15381 16.3144C2.25588 16.3635 2.37034 16.3807 2.48231 16.3638L4.18106 16.1043C4.49325 16.3293 4.82794 16.5234 5.1795 16.6823L5.80528 18.2819C5.84655 18.3874 5.91869 18.478 6.01228 18.5418C6.10586 18.6057 6.21652 18.6398 6.32981 18.6398H8.87091C9.10294 18.6398 9.31106 18.4977 9.39544 18.2812L10.0191 16.6816C10.3707 16.5227 10.7054 16.3293 11.0183 16.1036L12.7156 16.3645C12.9455 16.3996 13.1726 16.2906 13.2886 16.0895L14.5606 13.8874C14.6174 13.7892 14.6431 13.6762 14.6344 13.5631C14.6258 13.45 14.5831 13.3422 14.5121 13.2538L13.4377 11.913C13.4567 11.721 13.4658 11.5277 13.4658 11.3357C13.4658 11.1438 13.4567 10.9518 13.4377 10.7606L14.5121 9.41759C14.5829 9.32906 14.6253 9.22124 14.6338 9.10822C14.6423 8.9952 14.6166 8.88223 14.5599 8.78408L13.2879 6.584C13.2314 6.48582 13.1464 6.40704 13.0443 6.35798C12.9422 6.30892 12.8276 6.29187 12.7156 6.30908L11.0175 6.56853C10.7042 6.34362 10.3696 6.15004 10.0184 5.99056L9.39474 4.39095C9.3535 4.28537 9.28139 4.19467 9.18782 4.1307C9.09424 4.06673 8.98355 4.03245 8.8702 4.03236H6.32911C6.09708 4.03236 5.88895 4.17439 5.80458 4.39025L5.1788 5.99056C4.82811 6.14984 4.49393 6.34319 4.18106 6.56783L2.48161 6.30837C2.3696 6.29093 2.25493 6.30787 2.15274 6.35695C2.05056 6.40604 1.96566 6.48496 1.90927 6.5833L0.638016 8.78337C0.581329 8.88152 0.555568 8.99449 0.564098 9.10751C0.572628 9.22054 0.615053 9.32836 0.685829 9.41689L1.7602 10.7599L1.76091 10.762ZM2.90559 12.003C2.87466 11.7815 2.85919 11.5579 2.85919 11.3371C2.85919 11.1163 2.87466 10.8927 2.90559 10.6713C2.92669 10.518 2.8845 10.3626 2.78747 10.2417L1.80591 9.01541L2.69255 7.48119L4.24575 7.71814C4.39973 7.74134 4.55583 7.70056 4.67817 7.60423C5.02973 7.32861 5.41716 7.10431 5.82848 6.93767C5.8996 6.90896 5.9641 6.86603 6.01803 6.8115C6.07195 6.75697 6.11417 6.69199 6.14208 6.62056L6.71372 5.15876H8.48559L9.05513 6.61986C9.11138 6.7647 9.22528 6.88001 9.37013 6.93767C9.77864 7.1015 10.1668 7.3265 10.5233 7.60423C10.5837 7.65143 10.6532 7.68576 10.7275 7.70511C10.8017 7.72445 10.8791 7.72841 10.955 7.71673L12.5061 7.47978L13.3927 9.014L12.4111 10.2402C12.3633 10.3001 12.3281 10.369 12.3078 10.4429C12.2875 10.5167 12.2825 10.594 12.293 10.6699C12.3549 11.1123 12.3549 11.5612 12.293 12.0037C12.2719 12.157 12.3141 12.3124 12.4111 12.4333L13.392 13.6574L12.5054 15.1931L10.955 14.9547C10.8788 14.9429 10.8011 14.947 10.7265 14.9666C10.652 14.9862 10.5823 15.0209 10.5218 15.0686C10.1715 15.3441 9.78369 15.5683 9.37013 15.7345C9.29873 15.7632 9.23395 15.8062 9.17978 15.8608C9.12561 15.9155 9.08319 15.9806 9.05513 16.0523L8.48559 17.5134H6.71372L6.14208 16.0516C6.11424 15.98 6.07197 15.9149 6.0179 15.8603C5.96383 15.8058 5.89912 15.7629 5.82778 15.7345C5.41523 15.5688 5.02856 15.3448 4.67958 15.0693C4.61898 15.0215 4.5492 14.9866 4.47457 14.9669C4.39994 14.9472 4.32206 14.9431 4.24575 14.9547L2.69255 15.1917L1.80591 13.6574L2.78747 12.4312C2.83534 12.3714 2.87051 12.3024 2.89082 12.2286C2.91113 12.1547 2.91616 12.0775 2.90559 12.0016V12.003ZM7.59966 15.0398C9.64083 15.0398 11.3016 13.379 11.3016 11.3378C11.3016 9.29665 9.64083 7.63587 7.59966 7.63587C5.55848 7.63587 3.8977 9.29665 3.8977 11.3378C3.8977 13.379 5.55848 15.0398 7.59966 15.0398ZM7.59966 8.76158C9.01997 8.76158 10.1759 9.91751 10.1759 11.3378C10.1759 12.7581 9.01997 13.9141 7.59966 13.9141C6.17934 13.9141 5.02341 12.7581 5.02341 11.3378C5.02341 9.91751 6.17934 8.76158 7.59966 8.76158ZM25.6257 24.8758C25.7227 24.8758 25.8204 24.8505 25.9069 24.8006C30.8808 21.9283 33.1639 19.9891 34.3297 17.6435C35.5376 15.2142 35.4835 12.3419 35.4012 7.99376C35.3773 6.72884 35.3506 5.29447 35.3506 3.7033C35.3506 3.5022 35.243 3.31658 35.0693 3.21533C32.1668 1.53978 29.1399 0.64892 26.0707 0.566655C22.7084 0.477358 19.3805 1.36751 16.1799 3.21533C16.0055 3.31587 15.8986 3.5015 15.8986 3.7033C15.8986 5.29376 15.8719 6.72814 15.848 7.99306C15.7629 12.4959 15.7116 15.2135 16.9203 17.6427C17.3696 18.5463 17.9862 19.39 18.8581 20.2499C11.4366 19.4027 11.2116 19.4435 7.40559 22.2194C6.78333 22.6729 6.03099 23.2213 5.11974 23.8527C4.83567 23.5061 4.44895 23.2579 3.97716 23.132C3.02653 22.8768 1.91911 23.1735 1.22302 23.8703C0.635907 24.4574 0.432001 25.2267 0.649266 26.0367L2.71786 33.7598C2.93442 34.5691 3.49481 35.133 4.29638 35.3481C4.52419 35.4093 4.76044 35.4388 4.99809 35.4388C5.75395 35.4388 6.52106 35.1407 7.05122 34.6106C7.43372 34.2288 7.65239 33.7689 7.7002 33.2718L9.31598 32.6615C12.0005 33.6585 13.7168 33.9785 15.2511 33.9785C16.3536 33.9785 17.3618 33.8132 18.567 33.6163C19.9374 33.392 21.4906 33.1375 23.761 33.0173C23.8728 33.0117 23.9797 32.9723 24.069 32.9055L33.05 26.1611C33.1384 26.0948 33.2053 26.0038 33.2424 25.8996C33.2794 25.7955 33.2849 25.6827 33.2581 25.5754C32.979 24.4511 32.3947 23.7227 31.52 23.4098C30.395 23.0076 28.8833 23.3352 26.8997 24.4117C25.3599 25.247 23.8545 26.3706 22.9552 27.0414C22.8905 27.0899 22.8286 27.1356 22.7696 27.1799C21.4653 27.0815 20.5512 27.0702 19.8741 27.0618C18.9017 27.0499 18.458 27.0442 17.9841 26.8073C17.5489 26.59 17.03 26.1632 16.13 25.3799L20.1195 25.4959C20.2236 25.4981 20.3269 25.4727 20.4169 25.4207C21.2888 24.918 21.8211 23.7213 21.7107 22.5407C22.7281 23.2389 23.9269 23.9814 25.3451 24.8006C25.4307 24.8497 25.5277 24.8757 25.6264 24.8758H25.6257ZM6.25458 33.8146C5.84606 34.2231 5.14505 34.4109 4.58747 34.2611C4.17966 34.1514 3.91669 33.8849 3.80489 33.4694L1.7363 25.7456C1.6245 25.3293 1.71942 24.9665 2.01895 24.6677C2.33255 24.3534 2.81981 24.1699 3.28177 24.1699C3.42028 24.1699 3.55669 24.1867 3.68536 24.2212C4.09317 24.3309 4.35684 24.5974 4.46794 25.0129L5.00231 27.0084L6.53864 32.736C6.55833 32.8092 6.57098 32.8802 6.57802 32.9498C6.57802 32.9554 6.57872 32.961 6.58013 32.966C6.60684 33.2873 6.49856 33.5713 6.25528 33.8139L6.25458 33.8146ZM19.9718 24.3646L14.5943 24.2085C14.3581 24.2029 14.1401 24.3449 14.0536 24.5657C14.0113 24.6737 14.0034 24.7921 14.0309 24.9048C14.0585 25.0174 14.1202 25.1188 14.2076 25.195C14.4101 25.3722 14.6 25.5381 14.7772 25.6935C17.4863 28.0659 17.5925 28.1587 19.8593 28.1868C20.5561 28.1952 21.5103 28.2072 22.8898 28.3183C23.0248 28.3288 23.1598 28.2909 23.2688 28.21C23.3764 28.1306 23.4966 28.0413 23.6274 27.9435C25.1546 26.8045 29.2102 23.7796 31.1403 24.4694C31.56 24.6192 31.8624 24.9567 32.0586 25.4952L23.5282 31.9014C21.2867 32.0294 19.6808 32.2924 18.3835 32.5047C15.552 32.9681 13.9925 33.2233 9.51216 31.533C9.38394 31.4845 9.24241 31.4845 9.11419 31.533L7.53989 32.1278L6.08794 26.7159L5.59927 24.8892C6.59419 24.2036 7.40349 23.613 8.06723 23.1292C9.90169 21.7912 10.7391 21.1809 12.0469 20.9756C13.4138 20.7611 15.3502 20.9826 19.2083 21.4235L19.8031 21.4917C20.3775 21.6667 20.5358 22.2356 20.5793 22.5639C20.6715 23.2642 20.4085 24.0194 19.9711 24.3632L19.9718 24.3646ZM17.9279 17.1421C16.8422 14.9596 16.8915 12.3454 16.973 8.01486C16.9955 6.8322 17.0201 5.50259 17.0236 4.03236C24.0788 0.096967 30.2164 1.79923 34.2249 4.03236C34.2284 5.5033 34.253 6.8329 34.2755 8.01556C34.3571 12.3461 34.4063 14.9596 33.3214 17.1421C32.2864 19.2234 30.189 21.0044 25.625 23.6615C21.0603 21.0044 18.9622 19.2227 17.9272 17.1414L17.9279 17.1421ZM25.3395 22.1266C25.4262 22.1777 25.525 22.2046 25.6257 22.2046C25.7263 22.2046 25.8251 22.1777 25.9118 22.1266C28.4051 20.6542 31.3976 18.6602 32.4115 16.2949C33.0183 14.8788 33.0978 13.2004 33.1245 11.7379C33.1512 10.1819 33.1189 8.59423 33.0879 7.05861C33.0746 6.41173 33.0612 5.74236 33.0528 5.08564C33.0515 4.98163 33.0214 4.88001 32.9658 4.79211C32.9102 4.70421 32.8312 4.63349 32.7378 4.58783C28.0845 2.309 23.1661 2.309 18.5136 4.58783C18.4202 4.63363 18.3414 4.70439 18.2858 4.79226C18.2302 4.88012 18.2 4.98167 18.1986 5.08564C18.1894 5.74447 18.1761 6.41665 18.1627 7.06634C18.1311 8.59915 18.0987 10.1847 18.1268 11.7379C18.1536 13.3024 18.2583 14.9371 18.8398 16.2949C19.8537 18.6602 22.8455 20.6542 25.3395 22.1266ZM19.2525 11.7175C19.2251 10.1854 19.2568 8.61111 19.2884 7.08884C19.2997 6.55165 19.3109 5.999 19.3193 5.44986C23.4516 3.52681 27.799 3.52681 31.932 5.44986C31.9404 5.99619 31.9517 6.54533 31.9622 7.0804C31.9932 8.60548 32.0248 10.1826 31.9988 11.7175C31.9742 13.0731 31.9032 14.6221 31.3765 15.8512C30.5272 17.8333 27.9087 19.6213 25.6257 20.9868C23.3426 19.6213 20.7242 17.8333 19.8748 15.8512C19.3693 14.672 19.2772 13.1681 19.2525 11.7175ZM25.6257 15.2149C26.513 15.2149 27.2351 14.4927 27.2351 13.6054V6.61353C27.2351 5.72619 26.513 5.00408 25.6257 5.00408C24.7383 5.00408 24.0162 5.72619 24.0162 6.61353V13.6054C24.0162 14.4927 24.7383 15.2149 25.6257 15.2149ZM25.1426 6.61353C25.1426 6.34705 25.3592 6.13048 25.6257 6.13048C25.8922 6.13048 26.1087 6.34705 26.1087 6.61353V13.6054C26.1087 13.8677 25.8872 14.0885 25.6257 14.0885C25.3641 14.0885 25.1426 13.867 25.1426 13.6054V6.61353ZM25.6257 20.1557C26.513 20.1557 27.2351 19.4336 27.2351 18.5463V17.8488C27.2351 16.9614 26.513 16.2393 25.6257 16.2393C24.7383 16.2393 24.0162 16.9614 24.0162 17.8488V18.5463C24.0162 19.4336 24.7383 20.1557 25.6257 20.1557ZM25.1426 17.8488C25.1426 17.5823 25.3592 17.3657 25.6257 17.3657C25.8922 17.3657 26.1087 17.5823 26.1087 17.8488V18.5463C26.1087 18.8127 25.8922 19.0293 25.6257 19.0293C25.3592 19.0293 25.1426 18.8127 25.1426 18.5463V17.8488Z" fill="black"/>
</svg>
