<svg width="40" height="40" viewBox="0 0 40 40" fill="none" xmlns="http://www.w3.org/2000/svg">
<g clip-path="url(#clip0_2056_96)">
<path d="M37.6562 0.000976562H2.34375C1.05141 0.000976562 0 1.05238 0 2.34473V33.5947C0 34.8871 1.05141 35.9385 2.34375 35.9385H11.0352C11.4666 35.9385 11.8164 35.5886 11.8164 35.1572C11.8164 34.7258 11.4666 34.376 11.0352 34.376H2.34375C1.91297 34.376 1.5625 34.0255 1.5625 33.5947V7.81348H38.4375V33.5947C38.4375 34.0255 38.087 34.376 37.6562 34.376H33.8064L25.8347 26.4043C26.6976 24.8269 27.1887 23.0184 27.1887 21.0971C27.1887 14.98 22.2121 10.0034 16.095 10.0034C9.97789 10.0034 5.00125 14.98 5.00125 21.0971C5.00125 27.2143 9.97789 32.1909 16.095 32.1909C18.016 32.1909 19.8245 31.6998 21.4017 30.837L24.9406 34.3759H18.0664C17.635 34.3759 17.2852 34.7257 17.2852 35.1571C17.2852 35.5886 17.635 35.9384 18.0664 35.9384H26.5031L29.6478 39.0832C30.2588 39.6942 31.0616 39.9997 31.8642 39.9996C32.6669 39.9996 33.4696 39.6942 34.0807 39.0831C34.9302 38.2335 35.1885 37.0138 34.857 35.9384H37.6562C38.9486 35.9384 40 34.887 40 33.5946V2.34465C40 1.05238 38.9486 0.000976562 37.6562 0.000976562ZM6.56375 21.0971C6.56375 15.8416 10.8395 11.5659 16.095 11.5659C21.3505 11.5659 25.6262 15.8416 25.6262 21.0971C25.6262 26.3527 21.3505 30.6284 16.095 30.6284C10.8395 30.6284 6.56375 26.3528 6.56375 21.0971ZM24.9685 27.7479L26.4563 29.2357L24.2332 31.4589L22.7454 29.9711C23.5873 29.3383 24.3358 28.5899 24.9685 27.7479ZM32.9759 37.9783C32.3629 38.5912 31.3656 38.5912 30.7527 37.9783L25.3381 32.5637L27.5612 30.3406L32.9759 35.7552C33.5888 36.3681 33.5888 37.3654 32.9759 37.9783ZM1.5625 6.25098V2.34473C1.5625 1.91395 1.91297 1.56348 2.34375 1.56348H37.6562C38.087 1.56348 38.4375 1.91395 38.4375 2.34473V6.25098H1.5625Z" fill="black"/>
<path d="M35 3.12598H18.125C17.6936 3.12598 17.3438 3.47582 17.3438 3.90723C17.3438 4.33863 17.6936 4.68848 18.125 4.68848H35C35.4314 4.68848 35.7812 4.33863 35.7812 3.90723C35.7812 3.47582 35.4314 3.12598 35 3.12598ZM8.4375 3.12613C8.23203 3.12613 8.03047 3.20895 7.88516 3.35504C7.73977 3.50035 7.65625 3.70191 7.65625 3.90738C7.65625 4.11285 7.73977 4.31441 7.88516 4.45965C8.03047 4.60496 8.23203 4.68863 8.4375 4.68863C8.64297 4.68863 8.84453 4.60504 8.98977 4.45965C9.13516 4.31441 9.21875 4.11285 9.21875 3.90738C9.21875 3.70191 9.13516 3.50035 8.98977 3.35504C8.84318 3.20872 8.64461 3.12641 8.4375 3.12613ZM5 3.12613C4.79453 3.12613 4.59297 3.20895 4.44766 3.35504C4.30227 3.50035 4.21875 3.70191 4.21875 3.90738C4.21875 4.11285 4.30227 4.31441 4.44766 4.45965C4.59297 4.60496 4.79453 4.68863 5 4.68863C5.20547 4.68863 5.40703 4.60504 5.55227 4.45965C5.69766 4.31363 5.78125 4.11285 5.78125 3.90738C5.78125 3.70191 5.69766 3.50035 5.55227 3.35504C5.40568 3.20872 5.20711 3.12641 5 3.12613ZM11.875 3.12613C11.6695 3.12613 11.468 3.20895 11.3227 3.35504C11.1773 3.50035 11.0938 3.70191 11.0938 3.90738C11.0938 4.11285 11.1773 4.31441 11.3227 4.45965C11.468 4.60496 11.6695 4.68863 11.875 4.68863C12.0805 4.68863 12.282 4.60504 12.4273 4.45965C12.5727 4.31441 12.6562 4.11285 12.6562 3.90738C12.6562 3.70191 12.5727 3.50035 12.4273 3.35504C12.2807 3.20872 12.0821 3.12641 11.875 3.12613ZM16.095 20.5503C15.6636 20.5503 15.3138 20.9001 15.3138 21.3315V24.3784C15.3138 24.8098 15.6636 25.1596 16.095 25.1596C16.5264 25.1596 16.8763 24.8098 16.8763 24.3784V21.3315C16.8763 20.9001 16.5264 20.5503 16.095 20.5503ZM16.0953 17.0347C15.8891 17.0347 15.6875 17.1182 15.5422 17.2636C15.3964 17.4106 15.3145 17.609 15.3141 17.816C15.3141 18.0214 15.397 18.223 15.5422 18.3682C15.6892 18.5144 15.888 18.5967 16.0953 18.5972C16.3008 18.5972 16.5023 18.5136 16.6477 18.3682C16.7936 18.2214 16.8759 18.023 16.8766 17.816C16.8766 17.6104 16.793 17.4089 16.6477 17.2636C16.5008 17.1177 16.3024 17.0354 16.0953 17.0347Z" fill="black"/>
<path d="M16.0938 13.128C11.6998 13.128 8.125 16.7028 8.125 21.0968C8.125 25.4908 11.6998 29.0655 16.0938 29.0655C20.4877 29.0655 24.0625 25.4908 24.0625 21.0968C24.0625 16.7028 20.4877 13.128 16.0938 13.128ZM16.0938 27.503C12.5613 27.503 9.6875 24.6292 9.6875 21.0968C9.6875 17.5644 12.5613 14.6905 16.0938 14.6905C19.6262 14.6905 22.5 17.5644 22.5 21.0968C22.5 24.6292 19.6261 27.503 16.0938 27.503ZM28.3009 15.785C28.3009 16.2164 28.6508 16.5663 29.0822 16.5663H34.9988C35.4302 16.5663 35.78 16.2164 35.78 15.785C35.78 15.3536 35.4302 15.0038 34.9988 15.0038H29.0822C28.6507 15.0038 28.3009 15.3535 28.3009 15.785ZM29.0822 11.2539H27.4779C27.0465 11.2539 26.6966 11.6038 26.6966 12.0352C26.6966 12.4666 27.0465 12.8164 27.4779 12.8164H29.0822C29.5136 12.8164 29.8634 12.4666 29.8634 12.0352C29.8634 11.6038 29.5136 11.2539 29.0822 11.2539ZM34.9988 12.8164C35.4302 12.8164 35.78 12.4666 35.78 12.0352C35.78 11.6038 35.4302 11.2539 34.9988 11.2539H32.5197C32.0883 11.2539 31.7384 11.6038 31.7384 12.0352C31.7384 12.4666 32.0883 12.8164 32.5197 12.8164H34.9988ZM34.9988 18.7536H33.0652C32.6338 18.7536 32.2839 19.1034 32.2839 19.5348C32.2839 19.9663 32.6338 20.3161 33.0652 20.3161H34.9988C35.4302 20.3161 35.78 19.9663 35.78 19.5348C35.78 19.1034 35.4302 18.7536 34.9988 18.7536ZM14.5495 34.3758C14.3441 34.3758 14.1425 34.4586 13.9972 34.6047C13.8519 34.75 13.7683 34.9516 13.7683 35.157C13.7683 35.3625 13.8518 35.5633 13.9972 35.7093C14.1425 35.8546 14.3441 35.9383 14.5495 35.9383C14.755 35.9383 14.9566 35.8547 15.1018 35.7093C15.2478 35.5625 15.3301 35.3641 15.3308 35.157C15.3308 34.9507 15.2472 34.75 15.1018 34.6047C14.9552 34.4584 14.7566 34.3761 14.5495 34.3758Z" fill="black"/>
</g>
<defs>
<clipPath id="clip0_2056_96">
<rect width="40" height="40" fill="white"/>
</clipPath>
</defs>
</svg>
