<svg width="36" height="36" viewBox="0 0 36 36" fill="none" xmlns="http://www.w3.org/2000/svg">
<path fill-rule="evenodd" clip-rule="evenodd" d="M11.4133 33.3883H1.05687C0.977631 33.3883 0.899277 33.3716 0.826905 33.3393C0.754533 33.307 0.689763 33.2599 0.636807 33.2009C0.58385 33.142 0.543893 33.0726 0.519533 32.9972C0.495173 32.9218 0.486955 32.8421 0.495414 32.7633C0.787297 30.0451 2.64398 27.7951 5.14647 26.9337C4.21838 26.2406 3.61584 25.1336 3.61584 23.8906C3.61584 21.8004 5.3197 20.0949 7.40981 20.0949C9.50184 20.0949 11.2056 21.8006 11.2056 23.8906C11.2056 25.1336 10.6029 26.2406 9.67443 26.9338C11.3562 27.5126 12.7459 28.7181 13.565 30.2713C14.2088 29.7372 14.9439 29.324 15.7347 29.0514C14.8066 28.3582 14.2041 27.2513 14.2041 26.0083C14.2041 23.9181 15.9079 22.2125 17.9981 22.2125C20.0901 22.2125 21.7938 23.9182 21.7938 26.0083C21.7938 27.2513 21.1912 28.3583 20.2627 29.0515C21.0534 29.324 21.7884 29.7372 22.4322 30.2711C23.2517 28.7179 24.6416 27.5124 26.3229 26.9337C25.3949 26.2406 24.7923 25.1335 24.7923 23.8906C24.7923 21.8004 26.4962 20.0949 28.5863 20.0949C30.6783 20.0949 32.382 21.8006 32.382 23.8906C32.382 25.1336 31.7794 26.2406 30.8509 26.9338C33.354 27.7953 35.2103 30.0454 35.5008 32.7636C35.5092 32.8423 35.5009 32.922 35.4765 32.9973C35.4521 33.0727 35.4121 33.1421 35.3592 33.201C35.3062 33.2599 35.2415 33.307 35.1691 33.3393C35.0968 33.3716 35.0184 33.3882 34.9392 33.3883H24.5834C24.748 33.8722 24.8583 34.3729 24.9125 34.8812C24.9209 34.96 24.9127 35.0396 24.8883 35.115C24.8639 35.1904 24.8239 35.2598 24.7709 35.3187C24.718 35.3776 24.6532 35.4247 24.5809 35.457C24.5085 35.4892 24.4302 35.5059 24.351 35.5059H11.6451C11.5659 35.5059 11.4875 35.4892 11.4151 35.457C11.3428 35.4247 11.278 35.3775 11.225 35.3186C11.1721 35.2596 11.1321 35.1902 11.1078 35.1148C11.0834 35.0394 11.0752 34.9597 11.0837 34.8809C11.1381 34.3727 11.2486 33.8721 11.4133 33.3883ZM7.40981 27.6863C4.62334 27.6863 2.29372 29.6437 1.72012 32.2589H11.9143C12.1423 31.8484 12.4111 31.462 12.7167 31.1056C11.8012 29.0888 9.76972 27.6863 7.40981 27.6863ZM7.40981 26.5569C8.87939 26.5569 10.0761 25.3587 10.0761 23.8906C10.0761 22.4225 8.87939 21.2243 7.40981 21.2243C5.94172 21.2243 4.74525 22.4225 4.74525 23.8906C4.74525 25.3586 5.94172 26.5569 7.40981 26.5569ZM17.9981 29.8039C15.2116 29.8039 12.882 31.7613 12.3084 34.3765H23.6881C23.1158 31.7613 20.7859 29.8039 17.9981 29.8039ZM23.2805 31.1053C23.586 31.4618 23.8548 31.8483 24.0828 32.2589H34.2763C33.7041 29.6436 31.3742 27.6863 28.5863 27.6863C26.2278 27.6863 24.1967 29.0887 23.2805 31.1053ZM17.9981 28.6745C19.4676 28.6745 20.6644 27.4764 20.6644 26.0083C20.6644 24.5401 19.4676 23.3419 17.9981 23.3419C16.53 23.3419 15.3335 24.5402 15.3335 26.0083C15.3335 27.4763 16.53 28.6745 17.9981 28.6745ZM28.5863 26.5569C30.0559 26.5569 31.2526 25.3587 31.2526 23.8906C31.2526 22.4225 30.0559 21.2243 28.5863 21.2243C27.1182 21.2243 25.9217 22.4225 25.9217 23.8906C25.9217 25.3586 27.1182 26.5569 28.5863 26.5569ZM20.3377 2.18127C21.0431 2.37472 21.7215 2.65586 22.357 3.01809L23.6537 2.4416C23.758 2.39522 23.8739 2.38154 23.9861 2.40237C24.0984 2.4232 24.2017 2.47756 24.2824 2.55828L26.1235 4.39929C26.2041 4.47993 26.2584 4.58307 26.2793 4.69517C26.3002 4.80726 26.2867 4.92306 26.2405 5.02732L25.666 6.32424C26.0288 6.9607 26.3101 7.64026 26.5034 8.34694L27.8257 8.85588C27.9322 8.89687 28.0238 8.96917 28.0884 9.06324C28.153 9.15732 28.1876 9.26877 28.1876 9.38289V11.9871C28.1876 12.1012 28.153 12.2127 28.0884 12.3068C28.0238 12.4008 27.9322 12.4731 27.8257 12.5141L26.503 13.0231C26.3087 13.7283 26.0274 14.4067 25.6657 15.0424L26.2405 16.34C26.2867 16.4443 26.3002 16.5601 26.2793 16.6722C26.2584 16.7843 26.2041 16.8874 26.1235 16.968L24.2824 18.8091C24.2018 18.8897 24.0986 18.9441 23.9865 18.965C23.8744 18.9858 23.7587 18.9723 23.6544 18.9261L22.3579 18.3518C21.7222 18.7144 21.0434 18.9956 20.3375 19.1888L19.8285 20.5113C19.7875 20.6179 19.7152 20.7095 19.6211 20.7741C19.527 20.8387 19.4156 20.8732 19.3015 20.8733H16.6973C16.5831 20.8732 16.4717 20.8387 16.3776 20.7741C16.2835 20.7095 16.2112 20.6179 16.1702 20.5113L15.6613 19.1889C14.9551 18.9948 14.2759 18.7135 13.6393 18.3513L12.3417 18.9261C12.2374 18.9723 12.1217 18.9858 12.0096 18.965C11.8975 18.9441 11.7943 18.8897 11.7137 18.8091L9.87264 16.968C9.79192 16.8873 9.73756 16.784 9.71673 16.6718C9.6959 16.5595 9.70958 16.4436 9.75596 16.3393L10.3323 15.0431C9.97 14.4073 9.68832 13.7289 9.49379 13.0235L8.1704 12.5141C8.06389 12.4731 7.9723 12.4008 7.90769 12.3068C7.84309 12.2127 7.8085 12.1012 7.8085 11.9871V9.38289C7.8085 9.26877 7.84309 9.15732 7.90769 9.06324C7.9723 8.96917 8.06389 8.89687 8.1704 8.85588L9.49358 8.34666C9.68808 7.64044 9.96987 6.96122 10.3325 6.32473L9.75596 5.02809C9.70957 4.92377 9.69589 4.80784 9.71672 4.69559C9.73755 4.58333 9.79191 4.48003 9.87264 4.39929L11.7137 2.55828C11.7944 2.47756 11.8977 2.4232 12.01 2.40237C12.1222 2.38154 12.2381 2.39522 12.3424 2.4416C12.3424 2.4416 13.6391 3.01809 13.639 3.01816C14.2747 2.6558 14.9533 2.37462 15.6589 2.1812L16.1704 0.855552C16.2114 0.74916 16.2838 0.657692 16.3778 0.593183C16.4718 0.528673 16.5832 0.494145 16.6973 0.494141H19.3015C19.5352 0.494141 19.7448 0.638141 19.8286 0.856329L20.3377 2.18127ZM19.388 2.85856L18.9135 1.62355H17.0846L16.6078 2.85927C16.5748 2.9448 16.5215 3.02101 16.4525 3.08131C16.3834 3.14161 16.3007 3.18419 16.2115 3.20536C15.4204 3.39332 14.6644 3.70659 13.9723 4.13332C13.8941 4.18148 13.8054 4.20985 13.7138 4.21599C13.6222 4.22213 13.5305 4.20584 13.4466 4.16854L12.238 3.63115L10.9456 4.92362L11.483 6.13224C11.5202 6.21613 11.5365 6.30784 11.5304 6.39944C11.5242 6.49103 11.4958 6.57975 11.4477 6.65791C11.0205 7.35158 10.7063 8.10871 10.5168 8.90099C10.4955 8.99 10.4528 9.07249 10.3925 9.14135C10.3322 9.2102 10.256 9.26335 10.1706 9.29621L8.93791 9.77064V11.5994L10.1706 12.0738C10.2559 12.1066 10.3321 12.1597 10.3923 12.2285C10.4526 12.2973 10.4953 12.3797 10.5168 12.4686C10.7073 13.2601 11.0198 14.0174 11.4473 14.7087C11.4956 14.7869 11.5241 14.8757 11.5304 14.9675C11.5366 15.0592 11.5203 15.1511 11.483 15.2351L10.9456 16.4437L12.2384 17.7366L13.4474 17.2011C13.531 17.1641 13.6223 17.1479 13.7135 17.1539C13.8047 17.16 13.8931 17.1881 13.9711 17.2359C14.6649 17.661 15.4197 17.9764 16.2138 18.1645C16.3031 18.1857 16.3859 18.2283 16.4551 18.2887C16.5242 18.3491 16.5776 18.4255 16.6106 18.5112L17.085 19.7438H18.9137L19.3881 18.5112C19.4211 18.4255 19.4744 18.3492 19.5435 18.2889C19.6126 18.2285 19.6953 18.1858 19.7846 18.1646C20.5754 17.9767 21.3322 17.6643 22.0231 17.2371C22.1011 17.1888 22.1898 17.1603 22.2814 17.154C22.373 17.1477 22.4648 17.1639 22.5487 17.2011L23.7577 17.7366L25.0509 16.4433L24.5155 15.2344C24.4784 15.1508 24.4623 15.0595 24.4683 14.9682C24.4744 14.877 24.5025 14.7886 24.5503 14.7107C24.9754 14.0167 25.2908 13.2619 25.479 12.4702C25.5002 12.381 25.5428 12.2982 25.6032 12.2291C25.6636 12.1601 25.7399 12.1067 25.8255 12.0738L27.0582 11.5994V9.77064L25.8255 9.29621C25.7398 9.26323 25.6635 9.20985 25.6031 9.1407C25.5426 9.07155 25.5 8.98871 25.4789 8.89937C25.2914 8.10742 24.9781 7.35066 24.551 6.65791C24.5029 6.57988 24.4746 6.49131 24.4684 6.39986C24.4622 6.3084 24.4783 6.21682 24.5155 6.13301L25.0509 4.92405L23.7581 3.63115L22.5495 4.16854C22.4656 4.20584 22.3739 4.22213 22.2823 4.21599C22.1907 4.20985 22.102 4.18148 22.0238 4.13332C21.3317 3.70659 20.5757 3.39332 19.7846 3.20536C19.6953 3.18415 19.6125 3.14148 19.5434 3.08105C19.4743 3.02062 19.4209 2.94425 19.388 2.85856ZM17.9978 4.66273C21.3244 4.66273 24.0216 7.35687 24.0216 10.6834C24.0216 14.0099 21.3242 16.7073 17.9978 16.7073C14.6712 16.7073 11.9771 14.01 11.9771 10.6834C11.9771 7.35673 14.6712 4.66273 17.9978 4.66273ZM17.9978 5.79214C15.2952 5.79214 13.1065 7.9808 13.1065 10.6834C13.1065 13.3862 15.2951 15.5779 17.9978 15.5779C20.7006 15.5779 22.8922 13.3862 22.8922 10.6834C22.8922 7.98073 20.7005 5.79214 17.9978 5.79214ZM18.227 10.7908C18.1076 10.7004 18.029 10.5663 18.0085 10.418C17.9879 10.2697 18.0271 10.1192 18.1173 9.99977C18.2077 9.88037 18.3418 9.80175 18.4902 9.78118C18.6385 9.76062 18.789 9.79978 18.9084 9.89007C19.0694 10.0119 19.2042 10.1648 19.305 10.3396L19.5235 10.7182C19.9409 11.4411 19.6932 12.3655 18.9703 12.7828L16.9233 13.9646C16.2004 14.382 15.2761 14.1343 14.8588 13.4114L14.6402 13.0329C14.2228 12.31 14.4705 11.3856 15.1934 10.9682L15.6328 10.7146C15.7625 10.6398 15.9166 10.6195 16.0613 10.6583C16.2059 10.697 16.3292 10.7916 16.4042 10.9213C16.479 11.051 16.4993 11.2051 16.4605 11.3498C16.4217 11.4944 16.3271 11.6178 16.1975 11.6927L15.7581 11.9464C15.7147 11.9714 15.6766 12.0048 15.6461 12.0446C15.6155 12.0844 15.5931 12.1298 15.5801 12.1783C15.5671 12.2268 15.5638 12.2773 15.5704 12.327C15.5769 12.3768 15.5932 12.4247 15.6183 12.4682L15.8368 12.8467C15.8875 12.9345 15.9709 12.9985 16.0688 13.0247C16.1666 13.0509 16.2709 13.0372 16.3586 12.9866L18.4056 11.8047C18.4934 11.754 18.5574 11.6706 18.5836 11.5728C18.6098 11.4749 18.5961 11.3707 18.5455 11.2829L18.3268 10.9044C18.3015 10.8602 18.2676 10.8216 18.227 10.7908ZM17.7686 10.5763C18.0169 10.7647 18.0655 11.1192 17.8771 11.3675C17.6887 11.6157 17.3342 11.6644 17.0859 11.476C16.9257 11.3544 16.7915 11.202 16.6911 11.0277L16.4726 10.6492C16.0552 9.92628 16.3029 9.00193 17.0258 8.58454L19.0728 7.40275C19.7957 6.98537 20.72 7.23306 21.1373 7.95595L21.3559 8.33452C21.7733 9.05741 21.5256 9.98177 20.8027 10.3991L20.3604 10.6545C20.2306 10.7293 20.0765 10.7496 19.9319 10.7108C19.7872 10.672 19.6639 10.5774 19.589 10.4478C19.4332 10.1779 19.5258 9.83219 19.7957 9.6764L20.238 9.42101C20.2814 9.39594 20.3195 9.36256 20.35 9.32276C20.3806 9.28297 20.403 9.23755 20.416 9.18909C20.429 9.14063 20.4323 9.09009 20.4257 9.04036C20.4192 8.99062 20.4029 8.94266 20.3778 8.89922L20.1593 8.52066C20.1086 8.43293 20.0252 8.36892 19.9273 8.34269C19.8295 8.31647 19.7252 8.33019 19.6375 8.38082L17.5905 9.56261C17.5027 9.61328 17.4387 9.69673 17.4125 9.79459C17.3863 9.89245 17.4 9.99672 17.4506 10.0845L17.6692 10.463C17.6945 10.507 17.7283 10.5455 17.7686 10.5763Z" fill="black"/>
</svg>
