<svg width="40" height="40" viewBox="0 0 40 40" fill="none" xmlns="http://www.w3.org/2000/svg">
<path d="M11.7949 39.415H28.164M12.9648 5.52637H27.852M2.42578 20.5988V7.08626C2.42578 6.22473 3.12415 5.52637 3.98567 5.52637H11.7851M37.5234 11.7854V30.0805C37.5234 30.942 36.825 31.6404 35.9635 31.6404H12.3608M16.05 31.6404L14.9049 39.3394H25.0442L23.899 31.6404H16.05Z" stroke="black" stroke-width="1.3" stroke-miterlimit="10"/>
<path d="M12.3624 26.5848H37.5249V30.0803C37.5249 30.9419 36.8265 31.6402 35.965 31.6402H12.3624M28.1571 29.1125H29.327M30.497 29.1125H31.6669M32.8368 29.1125H34.0067M6.25391 20.6767V11.8633H29.7254M33.6983 16.036V21.3006H12.2064M12.9554 14.2937V18.9608M10.9344 15.4605L14.9763 17.794M14.9763 15.4605L10.9344 17.794M20.0189 14.2937V18.9608M17.9979 15.4605L22.0398 17.794M22.0398 15.4605L17.9979 17.794M27.1536 14.2937V18.9608M25.1327 15.4605L29.1746 17.794M29.1746 15.4605L25.1327 17.794" stroke="black" stroke-width="1.3" stroke-miterlimit="10"/>
<path d="M10.801 20.5986H2.23567C1.37414 20.5986 0.675781 21.297 0.675781 22.1585V37.8287C0.675781 38.6903 1.37414 39.3886 2.23567 39.3886H10.801C11.6625 39.3886 12.3609 38.6903 12.3609 37.8287V22.1585C12.3609 21.297 11.6625 20.5986 10.801 20.5986Z" stroke="black" stroke-width="1.3" stroke-miterlimit="10"/>
<path d="M7.1055 36.4313H0.675781V37.8285C0.675781 38.69 1.37414 39.3884 2.23567 39.3884H10.801C11.6625 39.3884 12.3609 38.69 12.3609 37.8285V36.4313H8.28517M39.3254 5.97442V7.30368C39.3254 9.68766 37.9645 11.8625 35.8205 12.9049L33.5763 13.9961L31.3321 12.9049C29.1881 11.8625 27.8273 9.68766 27.8273 7.30368V2.03982L33.5763 0.602539L39.3254 2.03982V4.8045M10.801 20.5984H2.23567C1.37414 20.5984 0.675781 21.2968 0.675781 22.1583V23.5555H12.3609V22.1583C12.3609 21.2968 11.6625 20.5984 10.801 20.5984Z" stroke="black" stroke-width="1.3" stroke-miterlimit="10"/>
<path d="M36.473 5.64453L33.164 8.95361L30.6822 6.47182M4.0651 29.4067V28.1246C4.0651 26.7893 5.14759 25.7068 6.48293 25.7068C7.81828 25.7068 8.90077 26.7893 8.90077 28.1246V29.4067M7.10689 8.89901H14.1264M3.28516 29.4067H9.68071V34.0864H3.28516V29.4067Z" stroke="black" stroke-width="1.3" stroke-miterlimit="10"/>
</svg>
