<svg width="38" height="38" viewBox="0 0 38 38" fill="none" xmlns="http://www.w3.org/2000/svg">
<path d="M33.4742 19.6246C33.743 20.5246 34.5742 21.1871 35.5617 21.1871C36.768 21.1871 37.7492 20.2059 37.7492 18.9996C37.7492 17.7934 36.768 16.8121 35.5617 16.8121C34.5742 16.8121 33.7492 17.4746 33.4742 18.3746H28.968C28.9117 17.5059 28.7555 16.6684 28.493 15.8746H31.4992C31.668 15.8746 31.8242 15.8059 31.943 15.6934L33.8242 13.8121C34.068 13.9309 34.3367 13.9996 34.6305 13.9996C35.6617 13.9996 36.5055 13.1559 36.5055 12.1246C36.5055 11.0934 35.6617 10.2496 34.6305 10.2496C33.5992 10.2496 32.7555 11.0934 32.7555 12.1246C32.7555 12.4121 32.8242 12.6809 32.943 12.9309L31.2492 14.6246H27.9867C27.0055 12.6246 25.3867 10.9996 23.3805 10.0184V6.75586L25.0742 5.06211C25.318 5.18086 25.5867 5.24961 25.8805 5.24961C26.9117 5.24961 27.7555 4.40586 27.7555 3.37461C27.7555 2.34336 26.9117 1.49961 25.8805 1.49961C24.8492 1.49961 24.0055 2.34336 24.0055 3.37461C24.0055 3.66211 24.0742 3.93086 24.193 4.18086L22.3117 6.06211C22.2535 6.1203 22.2075 6.18952 22.1764 6.26572C22.1453 6.34192 22.1296 6.42356 22.1305 6.50586V9.51211C21.3367 9.24961 20.4992 9.09336 19.6305 9.03711V4.53086C20.5305 4.26211 21.193 3.43086 21.193 2.44336C21.193 1.23711 20.2117 0.255859 19.0055 0.255859C17.7992 0.255859 16.818 1.23711 16.818 2.44336C16.818 3.43086 17.4805 4.25586 18.3805 4.53086V9.03711C17.5117 9.09336 16.6742 9.24961 15.8805 9.51211V6.50586C15.8805 6.33711 15.8117 6.18086 15.6992 6.06211L13.818 4.18086C13.9367 3.93711 14.0055 3.66836 14.0055 3.37461C14.0055 2.34336 13.1617 1.49961 12.1305 1.49961C11.0992 1.49961 10.2555 2.34336 10.2555 3.37461C10.2555 4.40586 11.0992 5.24961 12.1305 5.24961C12.418 5.24961 12.6867 5.18086 12.9367 5.06211L14.6305 6.75586V10.0184C12.6305 10.9996 11.0055 12.6184 10.0242 14.6246H6.76172L5.06797 12.9309C5.18672 12.6871 5.25547 12.4184 5.25547 12.1246C5.25547 11.0934 4.41172 10.2496 3.38047 10.2496C2.34922 10.2496 1.50547 11.0934 1.50547 12.1246C1.50547 13.1559 2.34922 13.9996 3.38047 13.9996C3.66797 13.9996 3.93672 13.9309 4.18672 13.8121L6.06797 15.6934C6.18672 15.8121 6.34297 15.8746 6.51172 15.8746H9.51797C9.25547 16.6684 9.09922 17.5059 9.04297 18.3746H4.53672C4.403 17.9243 4.12771 17.5292 3.75168 17.2477C3.37565 16.9663 2.91892 16.8135 2.44922 16.8121C1.24297 16.8121 0.261719 17.7934 0.261719 18.9996C0.261719 20.2059 1.24297 21.1871 2.44922 21.1871C3.43672 21.1871 4.26172 20.5246 4.53672 19.6246H9.04297C9.09922 20.4934 9.25547 21.3309 9.51797 22.1246H6.51172C6.34297 22.1246 6.18672 22.1934 6.06797 22.3059L4.18672 24.1871C3.94297 24.0684 3.67422 23.9996 3.38047 23.9996C2.34922 23.9996 1.50547 24.8434 1.50547 25.8746C1.50547 26.9059 2.34922 27.7496 3.38047 27.7496C4.41172 27.7496 5.25547 26.9059 5.25547 25.8746C5.25547 25.5871 5.18672 25.3184 5.06797 25.0684L6.76172 23.3746H10.0242C11.0055 25.3746 12.6242 26.9996 14.6305 27.9809V31.2434L12.9367 32.9371C12.693 32.8184 12.4242 32.7496 12.1305 32.7496C11.0992 32.7496 10.2555 33.5934 10.2555 34.6246C10.2555 35.6559 11.0992 36.4996 12.1305 36.4996C13.1617 36.4996 14.0055 35.6559 14.0055 34.6246C14.0055 34.3371 13.9367 34.0684 13.818 33.8184L15.6992 31.9371C15.7574 31.8789 15.8034 31.8097 15.8346 31.7335C15.8657 31.6573 15.8813 31.5757 15.8805 31.4934V28.4871C16.6742 28.7496 17.5117 28.9059 18.3805 28.9621V33.4684C17.4805 33.7371 16.818 34.5684 16.818 35.5559C16.818 36.7621 17.7992 37.7434 19.0055 37.7434C20.2117 37.7434 21.193 36.7621 21.193 35.5559C21.193 34.5684 20.5305 33.7434 19.6305 33.4684V28.9621C20.4992 28.9059 21.3367 28.7496 22.1305 28.4871V31.4934C22.1305 31.6621 22.1992 31.8184 22.3117 31.9371L24.193 33.8184C24.0742 34.0621 24.0055 34.3309 24.0055 34.6246C24.0055 35.6559 24.8492 36.4996 25.8805 36.4996C26.9117 36.4996 27.7555 35.6559 27.7555 34.6246C27.7555 33.5934 26.9117 32.7496 25.8805 32.7496C25.593 32.7496 25.3242 32.8184 25.0742 32.9371L23.3805 31.2434V27.9809C25.3805 26.9996 27.0055 25.3809 27.9867 23.3746H31.2492L32.943 25.0684C32.8242 25.3121 32.7555 25.5809 32.7555 25.8746C32.7555 26.9059 33.5992 27.7496 34.6305 27.7496C35.6617 27.7496 36.5055 26.9059 36.5055 25.8746C36.5055 24.8434 35.6617 23.9996 34.6305 23.9996C34.343 23.9996 34.0742 24.0684 33.8242 24.1871L31.943 22.3059C31.8848 22.2477 31.8156 22.2016 31.7394 22.1705C31.6632 22.1394 31.5815 22.1238 31.4992 22.1246H28.493C28.7555 21.3309 28.9117 20.4934 28.968 19.6246H33.4742ZM34.6242 11.4996C34.968 11.4996 35.2492 11.7809 35.2492 12.1246C35.2492 12.4684 34.968 12.7496 34.6242 12.7496C34.4601 12.7496 34.3027 12.6844 34.1867 12.5684V12.5621C34.1867 12.5559 34.1867 12.5621 34.1805 12.5621C34.1225 12.505 34.0766 12.4369 34.0455 12.3617C34.0144 12.2866 33.9986 12.2059 33.9992 12.1246C33.9992 11.7809 34.2805 11.4996 34.6242 11.4996ZM25.8742 2.74961C26.218 2.74961 26.4992 3.03086 26.4992 3.37461C26.4992 3.71836 26.218 3.99961 25.8742 3.99961C25.7101 3.9996 25.5527 3.9344 25.4367 3.81836V3.81211C25.4367 3.80586 25.4367 3.81211 25.4305 3.81211C25.3725 3.75501 25.3266 3.68688 25.2955 3.61173C25.2644 3.53658 25.2486 3.45595 25.2492 3.37461C25.2492 3.03086 25.5305 2.74961 25.8742 2.74961ZM11.4992 3.37461C11.4992 3.03086 11.7805 2.74961 12.1242 2.74961C12.468 2.74961 12.7492 3.03086 12.7492 3.37461C12.7492 3.54336 12.6805 3.69961 12.568 3.81211H12.5617C12.5555 3.81211 12.5617 3.81211 12.5617 3.81836C12.4492 3.93086 12.2992 3.99961 12.1242 3.99961C11.7805 3.99961 11.4992 3.71836 11.4992 3.37461ZM2.74922 12.1246C2.74922 11.7809 3.03047 11.4996 3.37422 11.4996C3.71797 11.4996 3.99922 11.7809 3.99922 12.1246C3.99922 12.2934 3.93047 12.4496 3.81797 12.5621H3.81172C3.80547 12.5621 3.81172 12.5621 3.81172 12.5684C3.69922 12.6809 3.54922 12.7496 3.37422 12.7496C3.03047 12.7496 2.74922 12.4684 2.74922 12.1246ZM3.37422 26.4996C3.03047 26.4996 2.74922 26.2184 2.74922 25.8746C2.74922 25.5309 3.03047 25.2496 3.37422 25.2496C3.54297 25.2496 3.69922 25.3184 3.81172 25.4309V25.4371H3.81797C3.93047 25.5496 3.99922 25.6996 3.99922 25.8746C3.99922 26.2184 3.71797 26.4996 3.37422 26.4996ZM12.1242 35.2496C11.7805 35.2496 11.4992 34.9684 11.4992 34.6246C11.4992 34.2809 11.7805 33.9996 12.1242 33.9996C12.293 33.9996 12.4492 34.0684 12.5617 34.1809V34.1871H12.568C12.6805 34.2996 12.7492 34.4496 12.7492 34.6246C12.7492 34.9684 12.468 35.2496 12.1242 35.2496ZM26.4992 34.6246C26.4992 34.9684 26.218 35.2496 25.8742 35.2496C25.5305 35.2496 25.2492 34.9684 25.2492 34.6246C25.2492 34.4559 25.318 34.2996 25.4305 34.1871H25.4367V34.1809C25.5492 34.0684 25.6992 33.9996 25.8742 33.9996C26.218 33.9996 26.4992 34.2809 26.4992 34.6246ZM35.2492 25.8746C35.2492 26.2184 34.968 26.4996 34.6242 26.4996C34.2805 26.4996 33.9992 26.2184 33.9992 25.8746C33.9992 25.7059 34.068 25.5496 34.1805 25.4371H34.1867V25.4309C34.2992 25.3184 34.4492 25.2496 34.6242 25.2496C34.968 25.2496 35.2492 25.5309 35.2492 25.8746ZM35.5617 18.0621C36.0805 18.0621 36.4992 18.4809 36.4992 18.9996C36.4992 19.5184 36.0805 19.9371 35.5617 19.9371C35.043 19.9371 34.6242 19.5184 34.6242 18.9996C34.6242 18.4809 35.043 18.0621 35.5617 18.0621ZM18.0617 2.43711C18.0617 1.91836 18.4805 1.49961 18.9992 1.49961C19.518 1.49961 19.9367 1.91836 19.9367 2.43711C19.9367 2.95586 19.518 3.37461 18.9992 3.37461C18.4805 3.37461 18.0617 2.95586 18.0617 2.43711ZM2.43672 19.9371C1.91797 19.9371 1.49922 19.5184 1.49922 18.9996C1.49922 18.4809 1.91797 18.0621 2.43672 18.0621C2.95547 18.0621 3.37422 18.4809 3.37422 18.9996C3.37422 19.5184 2.95547 19.9371 2.43672 19.9371ZM19.9367 35.5621C19.9367 36.0809 19.518 36.4996 18.9992 36.4996C18.4805 36.4996 18.0617 36.0809 18.0617 35.5621C18.0617 35.0434 18.4805 34.6246 18.9992 34.6246C19.518 34.6246 19.9367 35.0434 19.9367 35.5621ZM18.9992 27.7496C14.1742 27.7496 10.2492 23.8246 10.2492 18.9996C10.2492 14.1746 14.1742 10.2496 18.9992 10.2496C23.8242 10.2496 27.7492 14.1746 27.7492 18.9996C27.7492 23.8246 23.8242 27.7496 18.9992 27.7496Z" fill="black"/>
<path d="M25.1188 19.6492L24.6063 19.3555C24.6126 19.2305 24.6188 19.118 24.6188 19.0055C24.6188 18.893 24.6188 18.7742 24.6063 18.6555L25.1188 18.3617C25.7126 18.018 25.9188 17.2492 25.5751 16.6555L24.3251 14.493C24.1563 14.2055 23.8876 13.9992 23.5688 13.9117C23.2501 13.8242 22.9126 13.868 22.6188 14.0367L22.1063 14.3305C21.9126 14.1992 21.7063 14.0805 21.4938 13.9742V13.3867C21.4938 12.6992 20.9313 12.1367 20.2438 12.1367H17.7438C17.0563 12.1367 16.4938 12.6992 16.4938 13.3867V13.9742C16.2813 14.0805 16.0813 14.1992 15.8813 14.3305L15.3688 14.0367C15.0813 13.868 14.7438 13.8242 14.4188 13.9117C14.0938 13.9992 13.8251 14.2055 13.6626 14.493L12.4126 16.6555C12.0688 17.2492 12.2751 18.018 12.8688 18.3617L13.3813 18.6555C13.3751 18.7805 13.3688 18.893 13.3688 19.0055C13.3688 19.118 13.3688 19.2367 13.3813 19.3555L12.8688 19.6492C12.2751 19.993 12.0688 20.7617 12.4126 21.3555L13.6626 23.518C13.8313 23.8055 14.1001 24.0117 14.4188 24.0992C14.7438 24.1867 15.0751 24.143 15.3688 23.9742L15.8813 23.6805C16.0751 23.8117 16.2813 23.9305 16.4938 24.0367V24.6242C16.4938 25.3117 17.0563 25.8742 17.7438 25.8742H20.2438C20.9313 25.8742 21.4938 25.3117 21.4938 24.6242V24.0367C21.7063 23.9305 21.9063 23.8117 22.1063 23.6805L22.6188 23.9742C22.9063 24.143 23.2438 24.1867 23.5688 24.0992C23.8938 24.0117 24.1626 23.8055 24.3251 23.518L25.5751 21.3555C25.9188 20.7617 25.7126 19.993 25.1188 19.6492ZM23.3751 18.9992C23.3751 19.1805 23.3626 19.368 23.3251 19.6055C23.2876 19.8555 23.4126 20.1055 23.6313 20.2305L24.4938 20.7305L23.2438 22.893L22.3813 22.393C22.1626 22.268 21.8876 22.2867 21.6813 22.443C21.3563 22.693 21.0063 22.8992 20.6313 23.0492C20.5157 23.0958 20.4168 23.1762 20.3477 23.2799C20.2785 23.3836 20.2423 23.5058 20.2438 23.6305V24.6242H17.7438V23.6305C17.7438 23.3742 17.5876 23.1492 17.3563 23.0492C16.9813 22.8992 16.6313 22.693 16.3063 22.443C16.1938 22.3555 16.0563 22.3117 15.9188 22.3117C15.8126 22.3117 15.7063 22.3367 15.6063 22.393L14.7438 22.893L13.4938 20.7305L14.3563 20.2305C14.5751 20.1055 14.7001 19.8555 14.6626 19.6055C14.6313 19.368 14.6126 19.1805 14.6126 18.9992C14.6126 18.818 14.6251 18.6305 14.6626 18.393C14.7001 18.143 14.5751 17.893 14.3563 17.768L13.4938 17.268L14.7438 15.1055L15.6063 15.6055C15.8251 15.7305 16.1001 15.7117 16.3063 15.5555C16.6313 15.3055 16.9813 15.0992 17.3563 14.9492C17.4719 14.9026 17.5708 14.8222 17.6399 14.7185C17.7091 14.6148 17.7453 14.4926 17.7438 14.368V13.3742H20.2438V14.368C20.2438 14.6242 20.4001 14.8492 20.6313 14.9492C21.0063 15.0992 21.3563 15.3055 21.6813 15.5555C21.8813 15.7117 22.1563 15.7305 22.3813 15.6055L23.2438 15.1055L24.4938 17.268L23.6313 17.768C23.4126 17.893 23.2876 18.143 23.3251 18.393C23.3563 18.6305 23.3751 18.818 23.3751 18.9992Z" fill="black"/>
<path d="M20.7427 16.9931L18.3739 19.3618L17.2552 18.2431C17.1383 18.1262 16.9798 18.0605 16.8145 18.0605C16.6493 18.0605 16.4908 18.1262 16.3739 18.2431C16.2571 18.3599 16.1914 18.5184 16.1914 18.6837C16.1914 18.849 16.2571 19.0074 16.3739 19.1243L17.9364 20.6868C18.0614 20.8118 18.2177 20.8681 18.3802 20.8681C18.5427 20.8681 18.6989 20.8056 18.8239 20.6868L21.6364 17.8743C21.7533 17.7574 21.8189 17.599 21.8189 17.4337C21.8189 17.2684 21.7533 17.1099 21.6364 16.9931C21.5196 16.8762 21.3611 16.8105 21.1958 16.8105C21.0305 16.8105 20.872 16.8762 20.7552 16.9931H20.7427Z" fill="black"/>
</svg>
