<svg width="40" height="38" viewBox="0 0 40 38" fill="none" xmlns="http://www.w3.org/2000/svg">
<path d="M3.68203 31.4636C3.35403 31.4636 3.08203 31.1916 3.08203 30.8636V3.82364C3.08203 1.95164 4.58603 0.431641 6.43403 0.431641H34.722C35.05 0.431641 35.322 0.703641 35.322 1.03164C35.322 1.35964 35.05 1.63164 34.722 1.63164H6.43403C5.25003 1.63164 4.28203 2.61564 4.28203 3.82364V30.8636C4.28203 31.1916 4.01003 31.4636 3.68203 31.4636Z" fill="black"/>
<path d="M28.8808 37.5675H4.40878C2.41678 37.5675 0.800781 35.9275 0.800781 33.9115V30.8635C0.800781 30.5355 1.07278 30.2635 1.40078 30.2635H25.8728C26.2008 30.2635 26.4728 30.5355 26.4728 30.8635V33.9115C26.4728 34.2395 26.2008 34.5115 25.8728 34.5115C25.5448 34.5115 25.2728 34.2395 25.2728 33.9115V31.4635H2.00078V33.9115C2.00078 35.2635 3.08078 36.3595 4.40878 36.3595H28.8808C29.2088 36.3595 29.4808 36.6315 29.4808 36.9595C29.4808 37.2875 29.2088 37.5675 28.8808 37.5675ZM31.7848 14.3035C31.4568 14.3035 31.1848 14.0395 31.1848 13.7115L31.1128 4.08749C31.1128 3.75149 31.3768 3.48749 31.7048 3.47949H31.7128C32.0408 3.47949 32.3128 3.74349 32.3128 4.07149L32.3848 13.6875C32.3848 14.0315 32.1208 14.3035 31.7848 14.3035Z" fill="black"/>
<path d="M28.8813 37.5595C27.9213 37.5595 26.9853 37.1675 26.3293 36.4875C25.6493 35.7995 25.2733 34.8875 25.2733 33.9115V30.8555C25.2733 30.5275 25.5453 30.2555 25.8733 30.2555C26.2013 30.2555 26.4733 30.5275 26.4733 30.8555V33.9115C26.4733 34.5595 26.7293 35.1915 27.1853 35.6475C27.6333 36.1115 28.2333 36.3595 28.8813 36.3595C30.2093 36.3595 31.2893 35.2635 31.2893 33.9115V32.0395L31.2173 20.0795C31.2173 19.7435 31.4813 19.4795 31.8173 19.4795C32.1453 19.4795 32.4173 19.7435 32.4173 20.0795L32.4893 33.9195C32.4893 35.9275 30.8653 37.5595 28.8813 37.5595ZM37.7293 7.73545H31.8813C31.5533 7.73545 31.2813 7.46345 31.2813 7.13545C31.2813 6.80745 31.5533 6.53545 31.8813 6.53545H37.1293V4.08745C37.1293 2.73545 36.0493 1.63945 34.7213 1.63945C33.3933 1.63945 32.3213 2.73545 32.3213 4.08745C32.3213 4.41545 32.0493 4.68745 31.7213 4.68745C31.3933 4.68745 31.1213 4.41545 31.1213 4.08745C31.1213 2.07145 32.7373 0.439453 34.7293 0.439453C36.7213 0.439453 38.3373 2.07945 38.3373 4.08745V7.13545C38.3293 7.46345 38.0653 7.73545 37.7293 7.73545ZM14.8013 10.9995H6.37734C6.04934 10.9995 5.77734 10.7275 5.77734 10.3995C5.77734 10.0715 6.04934 9.79945 6.37734 9.79945H14.8013C15.1293 9.79945 15.4013 10.0715 15.4013 10.3995C15.4013 10.7275 15.1293 10.9995 14.8013 10.9995ZM18.2493 10.9995H16.3213C15.9933 10.9995 15.7213 10.7275 15.7213 10.3995C15.7213 10.0715 15.9933 9.79945 16.3213 9.79945H18.2493C18.5773 9.79945 18.8493 10.0715 18.8493 10.3995C18.8493 10.7275 18.5773 10.9995 18.2493 10.9995ZM18.2493 13.9035H9.82534C9.49734 13.9035 9.22534 13.6315 9.22534 13.3035C9.22534 12.9755 9.49734 12.7035 9.82534 12.7035H18.2493C18.5773 12.7035 18.8493 12.9755 18.8493 13.3035C18.8493 13.6315 18.5773 13.9035 18.2493 13.9035ZM8.30534 13.9035H6.37734C6.04934 13.9035 5.77734 13.6315 5.77734 13.3035C5.77734 12.9755 6.04934 12.7035 6.37734 12.7035H8.30534C8.46447 12.7035 8.61709 12.7667 8.72961 12.8792C8.84213 12.9917 8.90534 13.1443 8.90534 13.3035C8.90534 13.4626 8.84213 13.6152 8.72961 13.7277C8.61709 13.8402 8.46447 13.9035 8.30534 13.9035ZM21.6413 5.14345H6.37734C6.04934 5.14345 5.77734 4.87145 5.77734 4.54345C5.77734 4.21545 6.04934 3.94345 6.37734 3.94345H21.6333C21.9613 3.94345 22.2333 4.21545 22.2333 4.54345C22.2333 4.87145 21.9693 5.14345 21.6413 5.14345ZM27.8813 5.14345H24.3853C24.0573 5.14345 23.7853 4.87145 23.7853 4.54345C23.7853 4.21545 24.0573 3.94345 24.3853 3.94345H27.8813C28.2093 3.94345 28.4813 4.21545 28.4813 4.54345C28.4813 4.87145 28.2093 5.14345 27.8813 5.14345ZM27.8813 8.03945H12.6173C12.2893 8.03945 12.0173 7.76745 12.0173 7.43945C12.0173 7.11145 12.2893 6.83945 12.6173 6.83945H27.8733C28.2013 6.83945 28.4733 7.11145 28.4733 7.43945C28.4733 7.76745 28.2093 8.03945 27.8813 8.03945ZM9.87334 8.03945H6.37734C6.04934 8.03945 5.77734 7.76745 5.77734 7.43945C5.77734 7.11145 6.04934 6.83945 6.37734 6.83945H9.87334C10.2013 6.83945 10.4733 7.11145 10.4733 7.43945C10.4733 7.76745 10.2013 8.03945 9.87334 8.03945ZM18.2493 16.6955H9.82534C9.49734 16.6955 9.22534 16.4235 9.22534 16.0955C9.22534 15.7675 9.49734 15.4955 9.82534 15.4955H18.2493C18.5773 15.4955 18.8493 15.7675 18.8493 16.0955C18.8493 16.4235 18.5773 16.6955 18.2493 16.6955ZM8.30534 16.6955H6.37734C6.04934 16.6955 5.77734 16.4235 5.77734 16.0955C5.77734 15.7675 6.04934 15.4955 6.37734 15.4955H8.30534C8.46447 15.4955 8.61709 15.5587 8.72961 15.6712C8.84213 15.7837 8.90534 15.9363 8.90534 16.0955C8.90534 16.2546 8.84213 16.4072 8.72961 16.5197C8.61709 16.6322 8.46447 16.6955 8.30534 16.6955ZM14.8013 19.5995H6.37734C6.04934 19.5995 5.77734 19.3275 5.77734 18.9995C5.77734 18.6715 6.04934 18.3995 6.37734 18.3995H14.8013C15.1293 18.3995 15.4013 18.6715 15.4013 18.9995C15.4013 19.3275 15.1293 19.5995 14.8013 19.5995ZM18.2493 19.5995H16.3213C15.9933 19.5995 15.7213 19.3275 15.7213 18.9995C15.7213 18.6715 15.9933 18.3995 16.3213 18.3995H18.2493C18.5773 18.3995 18.8493 18.6715 18.8493 18.9995C18.8493 19.3275 18.5773 19.5995 18.2493 19.5995Z" fill="black"/>
<path d="M26.9064 26.0473C26.7516 26.0512 26.6016 25.9936 26.4891 25.8872C26.3767 25.7807 26.311 25.6341 26.3064 25.4793C26.2264 23.7833 25.4344 23.0633 23.7384 23.1353C23.4904 23.1513 23.2744 23.0073 23.1704 22.7913C23.0664 22.5753 23.1064 22.3113 23.2744 22.1353L34.4024 9.9513C34.8984 9.4073 35.5784 9.0873 36.3224 9.0553C37.0504 9.0313 37.7624 9.2793 38.3144 9.7753C38.8584 10.2713 39.1784 10.9513 39.2104 11.6953C39.2424 12.4313 38.9864 13.1353 38.4904 13.6873L27.3464 25.8553C27.2344 25.9833 27.0664 26.0473 26.9064 26.0473ZM24.9864 22.0313C26.1464 22.2873 26.9384 23.0073 27.2984 24.1433L37.6024 12.8713C37.8818 12.5639 38.0285 12.1586 38.0106 11.7435C37.9926 11.3285 37.8114 10.9374 37.5064 10.6553C37.2024 10.3673 36.7944 10.2233 36.3784 10.2473C35.9624 10.2633 35.5784 10.4473 35.2984 10.7513L24.9864 22.0313Z" fill="black"/>
<path d="M22.1362 28.0639C21.9922 28.0639 21.8402 28.0079 21.7282 27.9039C21.6427 27.8273 21.5813 27.7276 21.5515 27.6168C21.5217 27.5061 21.5247 27.389 21.5602 27.2799L23.1362 22.3519C23.2402 22.0399 23.5762 21.8639 23.8882 21.9599C24.2002 22.0639 24.3762 22.3999 24.2802 22.7119L23.1042 26.3999L26.6722 24.8959C26.9762 24.7679 27.3282 24.9119 27.4562 25.2159C27.5842 25.5199 27.4402 25.8719 27.1362 25.9999L22.3682 28.0079C22.2882 28.0479 22.2082 28.0639 22.1362 28.0639ZM35.0322 20.4959C34.8882 20.4959 34.7442 20.4479 34.6242 20.3359C34.5655 20.2831 34.5178 20.2192 34.484 20.1478C34.4501 20.0765 34.4308 19.9991 34.4271 19.9202C34.4234 19.8414 34.4353 19.7625 34.4623 19.6883C34.4893 19.6141 34.5307 19.546 34.5842 19.4879L37.4402 16.3679C37.8882 15.8799 37.8482 15.1279 37.3682 14.6799L37.0322 14.3679C36.7842 14.1439 36.7682 13.7679 36.9922 13.5199C37.2162 13.2719 37.5922 13.2559 37.8402 13.4799L38.1762 13.7919C38.6439 14.2211 38.9226 14.8183 38.9511 15.4525C38.9796 16.0867 38.7556 16.7064 38.3282 17.1759L35.4722 20.2959C35.4181 20.3595 35.3506 20.4105 35.2745 20.445C35.1985 20.4796 35.1157 20.497 35.0322 20.4959ZM11.3922 28.3999C11.2962 28.3999 11.1922 28.3759 11.0962 28.3199C9.90417 27.6559 9.24817 26.1999 9.53617 24.8639C9.60017 24.5599 9.89617 24.3519 10.2082 24.3999C11.1522 24.5359 11.9122 25.0959 12.5282 25.6239L12.8642 25.9119C13.3202 26.3119 13.7522 26.6959 14.2482 26.9359C14.6962 27.1519 15.3762 27.2879 15.8402 26.9519C16.0242 26.8239 16.1762 26.6159 16.3442 26.3919C16.4962 26.1919 16.6482 25.9999 16.8162 25.8239C17.1762 25.4639 17.6882 25.2399 18.1522 25.2399H18.1602C18.5202 25.2399 18.8402 25.3759 19.0802 25.6159C19.3122 25.8559 19.3122 26.2319 19.0722 26.4639C18.8322 26.6959 18.4562 26.6959 18.2242 26.4559C18.0002 26.4319 17.7922 26.5279 17.6562 26.6639C17.5202 26.7999 17.4082 26.9519 17.2962 27.1039C17.0962 27.3759 16.8642 27.6799 16.5362 27.9119C15.6482 28.5599 14.4962 28.3839 13.7122 28.0079C13.0722 27.6959 12.5602 27.2479 12.0642 26.8079L11.7442 26.5279C11.4322 26.2559 11.0722 25.9759 10.6882 25.7919C10.7762 26.3999 11.1442 26.9679 11.6802 27.2639C11.9682 27.4239 12.0722 27.7919 11.9122 28.0799C11.8002 28.2879 11.6002 28.3999 11.3922 28.3999Z" fill="black"/>
<path d="M36.7749 15.2235C36.7269 15.2235 36.6869 15.2155 36.6389 15.2075C34.8389 14.7835 33.6709 13.6155 33.1509 11.7355C33.0629 11.4155 33.2469 11.0875 33.5669 10.9995C33.8869 10.9115 34.2149 11.0955 34.3029 11.4155C34.7029 12.8635 35.5509 13.7195 36.9109 14.0395C37.2309 14.1115 37.4309 14.4395 37.3589 14.7595C37.2869 15.0315 37.0469 15.2235 36.7749 15.2235Z" fill="black"/>
</svg>
