<svg width="40" height="40" viewBox="0 0 40 40" fill="none" xmlns="http://www.w3.org/2000/svg">
<path d="M20 0C8.95602 0 0 8.95602 0 20C0 31.044 8.95602 40 20 40C31.044 40 40 31.044 40 20C40 8.95602 31.044 0 20 0ZM14.1883 30.2344H9.31734V15.5802H14.1882L14.1883 30.2344ZM11.7529 13.5791H11.7212C10.0866 13.5791 9.02953 12.4539 9.02953 11.0477C9.02953 9.60969 10.119 8.51562 11.7853 8.51562C13.4516 8.51562 14.477 9.60969 14.5087 11.0477C14.5087 12.4539 13.4516 13.5791 11.7529 13.5791V13.5791ZM31.7518 30.2344H26.8815V22.3947C26.8815 20.4245 26.1763 19.0808 24.4138 19.0808C23.0683 19.0808 22.267 19.9872 21.9148 20.8621C21.7859 21.1752 21.7545 21.6129 21.7545 22.0508V30.2344H16.8839C16.8839 30.2344 16.9477 16.9549 16.8839 15.5802H21.7545V17.655C22.4018 16.6566 23.56 15.2363 26.1442 15.2363C29.3489 15.2363 31.7518 17.3306 31.7518 21.8316V30.2344Z" fill="white"/>
</svg>
