<svg width="25" height="25" viewBox="0 0 25 25" fill="none" xmlns="http://www.w3.org/2000/svg">
<path d="M3.125 11.5008C2.65901 11.5021 2.20292 11.6353 1.80949 11.885C1.41605 12.1347 1.10136 12.4907 0.901803 12.9118C0.70225 13.3329 0.625997 13.8019 0.681865 14.2645C0.737733 14.7271 0.923439 15.1645 1.2175 15.526L7.48617 23.2051C7.70968 23.4826 7.99618 23.7028 8.32188 23.8474C8.64758 23.9919 9.00307 24.0567 9.35883 24.0363C10.1197 23.9954 10.8067 23.5884 11.2446 22.9192L24.2663 1.94786C24.2684 1.94436 24.2706 1.94089 24.2729 1.93747C24.3951 1.74988 24.3555 1.37811 24.1033 1.14456C24.034 1.08042 23.9523 1.03115 23.8633 0.99977C23.7742 0.968392 23.6797 0.955574 23.5855 0.962107C23.4913 0.96864 23.3995 0.994384 23.3156 1.03775C23.2318 1.08113 23.1577 1.1412 23.0979 1.21429C23.0933 1.22004 23.0885 1.2257 23.0835 1.23127L9.95101 16.069C9.90104 16.1255 9.84035 16.1714 9.77246 16.2043C9.70458 16.2371 9.63085 16.2561 9.55556 16.2601C9.48027 16.2642 9.40492 16.2533 9.33389 16.228C9.26286 16.2027 9.19756 16.1635 9.14179 16.1128L4.78337 12.1466C4.33071 11.7316 3.73907 11.5012 3.125 11.5008Z" fill="#EA0667"/>
</svg>
