<svg width="18" height="18" viewBox="0 0 18 18" fill="none" xmlns="http://www.w3.org/2000/svg">
<g clip-path="url(#clip0_2055_73)">
<path d="M9 18C13.9706 18 18 13.9706 18 9C18 4.02944 13.9706 0 9 0C4.02944 0 0 4.02944 0 9C0 13.9706 4.02944 18 9 18Z" fill="#EA0667"/>
<path d="M8.89239 13.9199H8.00012C7.79832 13.9199 7.66332 13.7898 7.66262 13.5887C7.73645 11.2722 7.24532 11.4491 8.91735 11.4586C10.524 11.447 10.049 11.2898 10.1229 13.5602C10.1229 13.7961 9.99946 13.9199 9.76532 13.9202L8.89239 13.9199ZM8.85582 10.9688C8.56473 10.9688 8.27364 10.9667 7.98254 10.9688C7.74489 10.984 7.69848 10.7129 7.66614 10.5347C7.58352 9.76545 7.90344 9.16815 8.46946 8.67596C8.86672 8.29592 9.41024 8.13701 9.83071 7.79389C10.2223 7.45604 10.1823 6.8858 9.76497 6.58557C9.31075 6.26002 8.58793 6.22592 8.12211 6.52721C7.7927 6.75854 7.54977 7.09814 7.28891 7.40154C7.13493 7.58471 6.9827 7.60439 6.7925 7.46025C6.39289 7.15744 5.99446 6.85357 5.59719 6.54865C5.42914 6.41998 5.407 6.27092 5.51668 6.09162C6.61707 4.08068 9.41481 3.42678 11.25 4.826C12.4804 5.6265 13.0236 7.4258 12.0673 8.63904C11.6936 9.16639 11.0598 9.39701 10.5637 9.78232C9.8634 10.3712 10.3007 10.9253 9.72946 10.9688H8.85582Z" fill="white"/>
</g>
<defs>
<clipPath id="clip0_2055_73">
<rect width="18" height="18" fill="white"/>
</clipPath>
</defs>
</svg>
