<svg width="12" height="12" viewBox="0 0 12 12" fill="none" xmlns="http://www.w3.org/2000/svg">
<path fill-rule="evenodd" clip-rule="evenodd" d="M6.0013 11.8332C9.22305 11.8332 11.8346 9.22159 11.8346 5.99984C11.8346 2.77809 9.22305 0.166504 6.0013 0.166504C2.77955 0.166504 0.167969 2.77809 0.167969 5.99984C0.167969 9.22159 2.77955 11.8332 6.0013 11.8332ZM4.6888 4.24984C4.6888 4.13381 4.7349 4.02253 4.81694 3.94048C4.89899 3.85843 5.01027 3.81234 5.1263 3.81234H7.7513C7.86733 3.81234 7.97861 3.85843 8.06066 3.94048C8.14271 4.02253 8.1888 4.13381 8.1888 4.24984V6.87484C8.1888 6.99087 8.14271 7.10215 8.06066 7.1842C7.97861 7.26624 7.86733 7.31234 7.7513 7.31234C7.63527 7.31234 7.52399 7.26624 7.44194 7.1842C7.3599 7.10215 7.3138 6.99087 7.3138 6.87484V5.30567L4.56047 8.059C4.47753 8.13628 4.36784 8.17836 4.2545 8.17636C4.14116 8.17436 4.03301 8.12844 3.95286 8.04828C3.8727 7.96813 3.82678 7.85998 3.82478 7.74664C3.82278 7.6333 3.86486 7.52361 3.94214 7.44067L6.69547 4.68734H5.1263C5.01027 4.68734 4.89899 4.64124 4.81694 4.5592C4.7349 4.47715 4.6888 4.36587 4.6888 4.24984Z" fill="#EA0667"/>
</svg>
