<svg width="40" height="40" viewBox="0 0 40 40" fill="none" xmlns="http://www.w3.org/2000/svg">
<g clip-path="url(#clip0_2049_77)">
<path d="M20 0C31.0453 0 40 8.95469 40 20C40 31.0453 31.0453 40 20 40C8.95469 40 5.06639e-07 31.0453 5.06639e-07 20C5.06639e-07 8.95469 8.95469 0 20 0Z" fill="white"/>
<path d="M17.8127 18.1901L9.25094 8.23779H11.2798L18.714 16.8793L24.6516 8.23779H31.5L22.5211 21.3052L31.5 31.7418H29.471L21.6203 22.6161L15.3497 31.7418H8.50137L17.8132 18.1901H17.8127ZM28.74 9.76519H25.6236L11.2789 30.2839H14.3953L28.74 9.76519Z" fill="black"/>
</g>
<defs>
<clipPath id="clip0_2049_77">
<rect width="40" height="40" fill="white" transform="matrix(-1 0 0 1 40 0)"/>
</clipPath>
</defs>
</svg>
